<mxfile host="app.diagrams.net" agent="Mozilla/5.0 (X11; Linux x86_64) AppleWebKit/537.36 (KHTML, like Gecko) Chrome/127.0.0.0 Safari/537.36" version="25.0.3">
  <diagram name="Page-1" id="FDWH1MTXkPHieDB_OmCZ">
    <mxGraphModel dx="2537" dy="899" grid="1" gridSize="10" guides="1" tooltips="1" connect="1" arrows="1" fold="1" page="1" pageScale="1" pageWidth="850" pageHeight="1100" math="0" shadow="0">
      <root>
        <mxCell id="0" />
        <mxCell id="1" parent="0" />
        <mxCell id="mS0YjMR69RyOEPcFSCN0-57" value="Module Name" style="fillColor=#23445D;strokeColor=#FFFFFF;strokeWidth=2;fontColor=#FFFFFF;fontStyle=1" vertex="1" parent="1">
          <mxGeometry x="-400" y="940" width="200" height="40" as="geometry" />
        </mxCell>
        <mxCell id="mS0YjMR69RyOEPcFSCN0-58" value="Version Name" style="fillColor=#23445D;strokeColor=#FFFFFF;strokeWidth=2;fontColor=#FFFFFF;fontStyle=1" vertex="1" parent="1">
          <mxGeometry x="-200" y="940" width="200" height="40" as="geometry" />
        </mxCell>
        <mxCell id="mS0YjMR69RyOEPcFSCN0-59" value="Login" style="align=center;strokeColor=#DEEDFF" vertex="1" parent="1">
          <mxGeometry x="-400.5" y="980" width="200.5" height="140" as="geometry" />
        </mxCell>
        <mxCell id="mS0YjMR69RyOEPcFSCN0-60" value="Basic Auth" style="align=center;strokeColor=#DEEDFF" vertex="1" parent="1">
          <mxGeometry x="-199.5" y="980" width="200" height="70" as="geometry" />
        </mxCell>
        <mxCell id="mS0YjMR69RyOEPcFSCN0-61" value="Safe Basic Auth" style="align=center;strokeColor=#DEEDFF" vertex="1" parent="1">
          <mxGeometry x="-199.5" y="1050" width="200" height="70" as="geometry" />
        </mxCell>
        <mxCell id="mS0YjMR69RyOEPcFSCN0-62" value="Wire" style="align=center;strokeColor=#DEEDFF" vertex="1" parent="1">
          <mxGeometry x="-199.5" y="1120" width="200" height="70" as="geometry" />
        </mxCell>
        <mxCell id="mS0YjMR69RyOEPcFSCN0-63" value="Shift Cipher" style="align=center;strokeColor=#DEEDFF" vertex="1" parent="1">
          <mxGeometry x="-199.5" y="1190" width="200" height="70" as="geometry" />
        </mxCell>
        <mxCell id="mS0YjMR69RyOEPcFSCN0-64" value="Cryptography" style="align=center;strokeColor=#DEEDFF" vertex="1" parent="1">
          <mxGeometry x="-400.5" y="1120" width="200.5" height="280" as="geometry" />
        </mxCell>
        <mxCell id="mS0YjMR69RyOEPcFSCN0-65" value="Finance" style="align=center;strokeColor=#DEEDFF" vertex="1" parent="1">
          <mxGeometry x="-400.5" y="1400" width="200.5" height="140" as="geometry" />
        </mxCell>
        <mxCell id="mS0YjMR69RyOEPcFSCN0-66" value="Triple DES" style="align=center;strokeColor=#DEEDFF" vertex="1" parent="1">
          <mxGeometry x="-199.5" y="1260" width="200" height="70" as="geometry" />
        </mxCell>
        <mxCell id="mS0YjMR69RyOEPcFSCN0-67" value="RSA" style="align=center;strokeColor=#DEEDFF" vertex="1" parent="1">
          <mxGeometry x="-199.5" y="1330" width="200" height="70" as="geometry" />
        </mxCell>
        <mxCell id="mS0YjMR69RyOEPcFSCN0-68" value="Numpy Optimized" style="align=center;strokeColor=#DEEDFF" vertex="1" parent="1">
          <mxGeometry x="-199.5" y="1400" width="200" height="70" as="geometry" />
        </mxCell>
        <mxCell id="mS0YjMR69RyOEPcFSCN0-69" value="Numba JIT Optimized" style="align=center;strokeColor=#DEEDFF" vertex="1" parent="1">
          <mxGeometry x="-199.5" y="1470" width="200" height="70" as="geometry" />
        </mxCell>
        <mxCell id="mS0YjMR69RyOEPcFSCN0-70" value="Numpy Optimized" style="align=center;strokeColor=#DEEDFF" vertex="1" parent="1">
          <mxGeometry x="-199.5" y="1540" width="200" height="70" as="geometry" />
        </mxCell>
        <mxCell id="mS0YjMR69RyOEPcFSCN0-71" value="Numba NJIT Array Optimized" style="align=center;strokeColor=#DEEDFF" vertex="1" parent="1">
          <mxGeometry x="-199.5" y="1610" width="200" height="70" as="geometry" />
        </mxCell>
        <mxCell id="mS0YjMR69RyOEPcFSCN0-72" value="Physics" style="align=center;strokeColor=#DEEDFF" vertex="1" parent="1">
          <mxGeometry x="-400.5" y="1540" width="200.5" height="280" as="geometry" />
        </mxCell>
        <mxCell id="mS0YjMR69RyOEPcFSCN0-73" value="Numba NJIT Scalar Optimized" style="align=center;strokeColor=#DEEDFF" vertex="1" parent="1">
          <mxGeometry x="-199.5" y="1680" width="200" height="70" as="geometry" />
        </mxCell>
        <mxCell id="mS0YjMR69RyOEPcFSCN0-74" value="Numba NJIT Scalar Prange Optimized" style="align=center;strokeColor=#DEEDFF;textShadow=0;labelBorderColor=none;labelBackgroundColor=none;whiteSpace=wrap;" vertex="1" parent="1">
          <mxGeometry x="-199.5" y="1750" width="200" height="70" as="geometry" />
        </mxCell>
        <mxCell id="mS0YjMR69RyOEPcFSCN0-75" value="" style="align=center;strokeColor=#DEEDFF" vertex="1" parent="1">
          <mxGeometry x="-0.5" y="980" width="1090.5" height="840" as="geometry" />
        </mxCell>
        <mxCell id="mS0YjMR69RyOEPcFSCN0-76" value="" style="edgeStyle=none;orthogonalLoop=1;jettySize=auto;html=1;rounded=0;endArrow=none;endFill=0;dashed=1;dashPattern=8 8;" edge="1" parent="1">
          <mxGeometry width="100" relative="1" as="geometry">
            <mxPoint x="343.57" y="1840" as="sourcePoint" />
            <mxPoint x="343.57" y="990" as="targetPoint" />
            <Array as="points" />
          </mxGeometry>
        </mxCell>
        <mxCell id="mS0YjMR69RyOEPcFSCN0-77" value="" style="edgeStyle=none;orthogonalLoop=1;jettySize=auto;html=1;rounded=0;" edge="1" parent="1">
          <mxGeometry width="100" relative="1" as="geometry">
            <mxPoint x="23.57" y="1040" as="sourcePoint" />
            <mxPoint x="1065.9229411764702" y="1040" as="targetPoint" />
            <Array as="points" />
          </mxGeometry>
        </mxCell>
        <mxCell id="mS0YjMR69RyOEPcFSCN0-78" value="" style="align=left;strokeColor=#6c8ebf;html=1;fillColor=#dae8fc;shadow=1;" vertex="1" parent="1">
          <mxGeometry x="23.57" y="1016" width="316.43" height="20" as="geometry" />
        </mxCell>
        <mxCell id="mS0YjMR69RyOEPcFSCN0-80" value="" style="edgeStyle=none;orthogonalLoop=1;jettySize=auto;html=1;rounded=0;" edge="1" parent="1">
          <mxGeometry width="100" relative="1" as="geometry">
            <mxPoint x="23.57" y="1110" as="sourcePoint" />
            <mxPoint x="1065.9229411764702" y="1110" as="targetPoint" />
            <Array as="points" />
          </mxGeometry>
        </mxCell>
        <mxCell id="mS0YjMR69RyOEPcFSCN0-81" value="" style="align=left;strokeColor=#6c8ebf;html=1;fillColor=#dae8fc;shadow=1;" vertex="1" parent="1">
          <mxGeometry x="345" y="1090" width="315" height="20" as="geometry" />
        </mxCell>
        <mxCell id="mS0YjMR69RyOEPcFSCN0-83" value="" style="edgeStyle=none;orthogonalLoop=1;jettySize=auto;html=1;rounded=0;" edge="1" parent="1">
          <mxGeometry width="100" relative="1" as="geometry">
            <mxPoint x="23.57" y="1180" as="sourcePoint" />
            <mxPoint x="1065.9229411764702" y="1180" as="targetPoint" />
            <Array as="points" />
          </mxGeometry>
        </mxCell>
        <mxCell id="mS0YjMR69RyOEPcFSCN0-86" value="" style="edgeStyle=none;orthogonalLoop=1;jettySize=auto;html=1;rounded=0;" edge="1" parent="1">
          <mxGeometry width="100" relative="1" as="geometry">
            <mxPoint x="23.57" y="1250" as="sourcePoint" />
            <mxPoint x="1065.9229411764702" y="1250" as="targetPoint" />
            <Array as="points" />
          </mxGeometry>
        </mxCell>
        <mxCell id="mS0YjMR69RyOEPcFSCN0-87" value="" style="edgeStyle=none;orthogonalLoop=1;jettySize=auto;html=1;rounded=0;" edge="1" parent="1">
          <mxGeometry width="100" relative="1" as="geometry">
            <mxPoint x="23.57" y="1320" as="sourcePoint" />
            <mxPoint x="1065.9229411764702" y="1320" as="targetPoint" />
            <Array as="points" />
          </mxGeometry>
        </mxCell>
        <mxCell id="mS0YjMR69RyOEPcFSCN0-88" value="" style="align=left;strokeColor=#6c8ebf;html=1;fillColor=#dae8fc;shadow=1;" vertex="1" parent="1">
          <mxGeometry x="343.57" y="1230" width="316.43" height="20" as="geometry" />
        </mxCell>
        <mxCell id="mS0YjMR69RyOEPcFSCN0-90" value="" style="edgeStyle=none;orthogonalLoop=1;jettySize=auto;html=1;rounded=0;" edge="1" parent="1">
          <mxGeometry width="100" relative="1" as="geometry">
            <mxPoint x="23.57" y="1390" as="sourcePoint" />
            <mxPoint x="1065.9229411764702" y="1390" as="targetPoint" />
            <Array as="points" />
          </mxGeometry>
        </mxCell>
        <mxCell id="mS0YjMR69RyOEPcFSCN0-91" value="" style="align=left;strokeColor=#6c8ebf;html=1;fillColor=#dae8fc;shadow=1;" vertex="1" parent="1">
          <mxGeometry x="662.5" y="1370" width="317.5" height="20" as="geometry" />
        </mxCell>
        <mxCell id="mS0YjMR69RyOEPcFSCN0-93" value="" style="edgeStyle=none;orthogonalLoop=1;jettySize=auto;html=1;rounded=0;" edge="1" parent="1">
          <mxGeometry width="100" relative="1" as="geometry">
            <mxPoint x="23.57" y="1460" as="sourcePoint" />
            <mxPoint x="1065.9229411764702" y="1460" as="targetPoint" />
            <Array as="points" />
          </mxGeometry>
        </mxCell>
        <mxCell id="mS0YjMR69RyOEPcFSCN0-94" value="" style="edgeStyle=none;orthogonalLoop=1;jettySize=auto;html=1;rounded=0;" edge="1" parent="1">
          <mxGeometry width="100" relative="1" as="geometry">
            <mxPoint x="23.57" y="1530" as="sourcePoint" />
            <mxPoint x="1065.9229411764702" y="1530" as="targetPoint" />
            <Array as="points" />
          </mxGeometry>
        </mxCell>
        <mxCell id="mS0YjMR69RyOEPcFSCN0-95" value="" style="edgeStyle=none;orthogonalLoop=1;jettySize=auto;html=1;rounded=0;" edge="1" parent="1">
          <mxGeometry width="100" relative="1" as="geometry">
            <mxPoint x="23.57" y="1600" as="sourcePoint" />
            <mxPoint x="1065.9229411764702" y="1600" as="targetPoint" />
            <Array as="points" />
          </mxGeometry>
        </mxCell>
        <mxCell id="mS0YjMR69RyOEPcFSCN0-96" value="" style="align=left;strokeColor=#6c8ebf;html=1;fillColor=#dae8fc;shadow=1;" vertex="1" parent="1">
          <mxGeometry x="23.57" y="1160" width="316.43" height="20" as="geometry" />
        </mxCell>
        <mxCell id="mS0YjMR69RyOEPcFSCN0-97" value="" style="edgeStyle=none;orthogonalLoop=1;jettySize=auto;html=1;rounded=0;" edge="1" parent="1">
          <mxGeometry width="100" relative="1" as="geometry">
            <mxPoint x="23.57" y="1670" as="sourcePoint" />
            <mxPoint x="1065.9229411764702" y="1670" as="targetPoint" />
            <Array as="points" />
          </mxGeometry>
        </mxCell>
        <mxCell id="mS0YjMR69RyOEPcFSCN0-98" value="" style="align=left;strokeColor=#6c8ebf;html=1;fillColor=#dae8fc;shadow=1;" vertex="1" parent="1">
          <mxGeometry x="23.57" y="1440" width="636.43" height="20" as="geometry" />
        </mxCell>
        <mxCell id="mS0YjMR69RyOEPcFSCN0-99" value="" style="edgeStyle=none;orthogonalLoop=1;jettySize=auto;html=1;rounded=0;" edge="1" parent="1">
          <mxGeometry width="100" relative="1" as="geometry">
            <mxPoint x="23.57" y="1740" as="sourcePoint" />
            <mxPoint x="1065.9229411764702" y="1740" as="targetPoint" />
            <Array as="points" />
          </mxGeometry>
        </mxCell>
        <mxCell id="mS0YjMR69RyOEPcFSCN0-100" value="" style="edgeStyle=none;orthogonalLoop=1;jettySize=auto;html=1;rounded=0;" edge="1" parent="1">
          <mxGeometry width="100" relative="1" as="geometry">
            <mxPoint x="23.57" y="1810" as="sourcePoint" />
            <mxPoint x="1065.9229411764702" y="1810" as="targetPoint" />
            <Array as="points" />
          </mxGeometry>
        </mxCell>
        <mxCell id="mS0YjMR69RyOEPcFSCN0-101" value="" style="align=left;strokeColor=#6c8ebf;html=1;fillColor=#dae8fc;shadow=1;" vertex="1" parent="1">
          <mxGeometry x="23.57" y="1580" width="316.43" height="20" as="geometry" />
        </mxCell>
        <mxCell id="mS0YjMR69RyOEPcFSCN0-103" value="" style="edgeStyle=none;orthogonalLoop=1;jettySize=auto;html=1;rounded=0;endArrow=none;endFill=0;dashed=1;dashPattern=8 8;" edge="1" parent="1">
          <mxGeometry width="100" relative="1" as="geometry">
            <mxPoint x="663.57" y="1840" as="sourcePoint" />
            <mxPoint x="663.57" y="990" as="targetPoint" />
            <Array as="points" />
          </mxGeometry>
        </mxCell>
        <mxCell id="mS0YjMR69RyOEPcFSCN0-104" value="" style="edgeStyle=none;orthogonalLoop=1;jettySize=auto;html=1;rounded=0;endArrow=none;endFill=0;dashed=1;dashPattern=8 8;" edge="1" parent="1">
          <mxGeometry width="100" relative="1" as="geometry">
            <mxPoint x="983.07" y="1840" as="sourcePoint" />
            <mxPoint x="983.07" y="990" as="targetPoint" />
            <Array as="points" />
          </mxGeometry>
        </mxCell>
        <mxCell id="mS0YjMR69RyOEPcFSCN0-105" value="Updates Schedule Chart" style="fillColor=#23445D;strokeColor=#FFFFFF;strokeWidth=2;fontColor=#FFFFFF;fontStyle=1" vertex="1" parent="1">
          <mxGeometry x="0.5" y="940" width="1089.5" height="40" as="geometry" />
        </mxCell>
        <mxCell id="mS0YjMR69RyOEPcFSCN0-106" value="8" style="text;html=1;align=center;verticalAlign=middle;resizable=0;points=[];autosize=1;strokeColor=none;fillColor=none;" vertex="1" parent="1">
          <mxGeometry x="328" y="1840" width="30" height="30" as="geometry" />
        </mxCell>
        <mxCell id="mS0YjMR69RyOEPcFSCN0-107" value="16" style="text;html=1;align=center;verticalAlign=middle;resizable=0;points=[];autosize=1;strokeColor=none;fillColor=none;" vertex="1" parent="1">
          <mxGeometry x="643" y="1840" width="40" height="30" as="geometry" />
        </mxCell>
        <mxCell id="mS0YjMR69RyOEPcFSCN0-108" value="24" style="text;html=1;align=center;verticalAlign=middle;resizable=0;points=[];autosize=1;strokeColor=none;fillColor=none;" vertex="1" parent="1">
          <mxGeometry x="963" y="1840" width="40" height="30" as="geometry" />
        </mxCell>
        <mxCell id="mS0YjMR69RyOEPcFSCN0-112" value="" style="align=left;strokeColor=#6c8ebf;html=1;fillColor=#dae8fc;shadow=1;" vertex="1" parent="1">
          <mxGeometry x="662.5" y="1510" width="317.5" height="20" as="geometry" />
        </mxCell>
        <mxCell id="mS0YjMR69RyOEPcFSCN0-114" value="" style="align=left;strokeColor=#6c8ebf;html=1;fillColor=#dae8fc;shadow=1;" vertex="1" parent="1">
          <mxGeometry x="662.5" y="1016" width="315" height="20" as="geometry" />
        </mxCell>
        <mxCell id="mS0YjMR69RyOEPcFSCN0-115" value="" style="align=left;strokeColor=#6c8ebf;html=1;fillColor=#dae8fc;shadow=1;" vertex="1" parent="1">
          <mxGeometry x="346.07" y="1790" width="316.43" height="20" as="geometry" />
        </mxCell>
        <mxCell id="mS0YjMR69RyOEPcFSCN0-116" value="" style="align=left;strokeColor=#6c8ebf;html=1;fillColor=#dae8fc;shadow=1;" vertex="1" parent="1">
          <mxGeometry x="663.5699999999999" y="1650" width="316.43" height="20" as="geometry" />
        </mxCell>
      </root>
    </mxGraphModel>
  </diagram>
</mxfile>
